<svg width="242" height="69" viewBox="0 0 242 69" fill="none" xmlns="http://www.w3.org/2000/svg">
<path fill-rule="evenodd" clip-rule="evenodd" d="M33.6323 60.6096C27.8927 65.5365 21.0424 68 13.0814 68C8.54317 68 5.22529 67.1296 3.12775 65.3888C3.00113 65.2837 2.87814 65.1745 2.759 65.0615C1.58668 63.993 1.00052 62.1085 1.00052 59.4079C0.98521 58.2058 1.30879 57.0221 1.93689 55.9827C2.56498 54.9432 3.47412 54.0869 4.56771 53.5045C6.14323 52.5533 8.24045 51.8352 10.8594 51.3501C11.7616 51.1848 12.6714 51.0597 13.5857 50.9754C14.4781 50.8903 15.4282 50.832 16.4362 50.8004C17.0611 50.7808 17.6862 50.771 18.3113 50.7712C21.2121 50.7712 25.1774 51.2906 30.2074 52.3293C31.1345 51.3278 32.0245 50.2951 32.8759 49.2331C34.9437 46.6699 37.2558 43.4655 39.8121 39.6199C43.5307 34.0256 46.47 29.7146 48.6301 26.6871C50.0329 24.7262 51.4982 22.8073 53.0239 20.9332C53.9921 19.7415 54.9807 18.5652 55.9892 17.4049C58.3085 14.7249 60.8056 12.192 63.4648 9.82207C63.8393 9.4896 64.2173 9.16076 64.5986 8.83558C69.0161 5.03978 73.4011 2.62311 77.7535 1.58557C79.3551 1.19958 80.9996 1.00302 82.6507 1.00024C83.3419 0.996025 84.0322 1.04726 84.7144 1.15341C85.4431 1.27193 86.0931 1.45884 86.6644 1.71412C87.3231 1.99984 87.9115 2.41652 88.3907 2.93674C89.5636 4.22774 90.1501 5.75639 90.1501 7.5227C90.1501 9.28841 89.3089 11.3434 87.6266 13.6878C85.974 16.0013 84.0133 18.0967 81.7947 19.9203C80.541 20.9531 79.2408 21.9323 77.8976 22.8551C77.0415 23.4419 76.1644 23.9999 75.268 24.5282C73.1237 25.7894 71.4344 26.42 70.2001 26.42C69.6786 26.4216 69.162 26.3236 68.6801 26.1318C68.1983 25.9399 67.7609 25.6579 67.3932 25.3022C67.2571 25.1767 67.1277 25.0446 67.0055 24.9065C66.3944 24.2173 65.9921 23.5453 65.7987 22.8907C65.7103 22.5983 65.6647 22.2954 65.6632 21.9908C65.6632 21.259 65.7438 20.6998 65.9049 20.3133C65.9448 20.2144 65.9956 20.1199 66.0566 20.0315C66.3195 19.6608 66.5897 19.4754 66.8671 19.4754C67.1445 19.4754 67.3142 19.6386 67.3761 19.965C67.6663 19.8735 67.9486 19.7607 68.2208 19.6276C69.1846 19.1694 70.4845 18.3543 72.1207 17.1824C73.8343 15.9598 75.477 14.648 77.0416 13.2529C77.3883 12.9425 77.7305 12.6276 78.0683 12.3083C78.3753 12.0189 78.678 11.7253 78.9764 11.4276C80.0552 10.3481 80.6426 9.61511 80.7387 9.22854C80.7476 9.19454 80.7524 9.15966 80.7529 9.1246C80.7529 8.72587 80.5213 8.51192 80.058 8.48275C80.0199 8.48033 79.9816 8.47911 79.9433 8.4791C79.7557 8.481 79.5686 8.49839 79.384 8.53107C78.9985 8.5955 78.5467 8.72101 78.0284 8.90761C77.9336 8.94186 77.8391 8.97711 77.745 9.01337C76.8192 9.36955 75.5846 10.1041 74.0413 11.217C73.3212 11.7392 72.6221 12.2875 71.9453 12.8608C71.017 13.6443 70.0494 14.5284 69.0427 15.513C66.14 18.3047 63.0146 21.8802 59.6663 26.2395C57.9225 28.5173 56.2337 30.8337 54.6014 33.1868C54.2586 33.665 53.918 34.1445 53.5794 34.6255C52.8116 35.7159 51.9085 37.0154 50.8702 38.524C50.3691 39.252 49.8692 39.9808 49.3705 40.7103C45.2829 46.6468 42.2317 50.918 40.2169 53.5237C39.9845 53.825 39.7494 54.1243 39.5116 54.4217C43.1723 55.3527 46.8477 56.2293 50.5365 57.0511C60.4882 59.2551 68.0088 60.3813 73.0981 60.43C73.2121 60.4311 73.3262 60.4317 73.4403 60.4318C74.169 60.4336 74.8976 60.4092 75.6244 60.3589C76.0041 60.3334 76.3829 60.296 76.7601 60.2467C76.793 59.921 76.8491 59.5978 76.9279 59.2794C77.271 57.806 78.0525 55.9495 79.2722 53.7097C80.2921 51.8333 81.3531 49.9778 82.4545 48.1445C83.0756 47.1119 83.712 46.0879 84.3637 45.0729C84.5633 44.7622 84.7621 44.451 84.96 44.1393C86.2599 42.0928 86.9099 40.972 86.9099 40.7769C86.9068 40.7156 86.8914 40.6556 86.8644 40.6C86.7823 40.4122 86.5889 40.1487 86.2843 39.8095C86.1788 39.6924 86.071 39.5772 85.961 39.464C85.8355 39.3351 85.7141 39.2025 85.597 39.0665C85.2071 38.6112 85.0121 38.2614 85.0121 38.0171C85.0121 37.7053 85.6523 36.889 86.9327 35.5682C87.6512 34.8314 88.411 34.1329 89.2088 33.4758C89.983 32.837 90.7834 32.2281 91.6081 31.6505C92.0047 31.3699 92.4113 31.1026 92.8271 30.8491C94.0778 30.0924 95.0754 29.714 95.8199 29.714C96.5399 29.7162 97.2377 29.9534 97.7992 30.3869C98.0293 30.5589 98.2423 30.7512 98.4353 30.9613C99.1817 31.7648 99.5669 32.4993 99.5909 33.1649C99.5916 33.1871 99.5919 33.2093 99.5918 33.2315C99.5625 33.4138 99.5047 33.5909 99.4202 33.7566C98.617 35.6098 95.0021 41.86 88.5755 52.5071C88.5536 52.5487 88.5305 52.5897 88.5063 52.6302C88.3818 52.8405 88.1505 53.1927 87.8124 53.6869C87.7128 53.8318 87.6142 53.9774 87.5166 54.1236C87.2784 54.4828 87.0784 54.7986 86.9166 55.0709C86.8907 55.1142 86.8651 55.1576 86.8398 55.2012C86.7467 55.3625 86.6544 55.5241 86.563 55.6863C86.4006 55.975 86.223 56.2953 86.0302 56.6472C85.8537 56.9838 85.694 57.3282 85.5515 57.6793C85.2532 58.4227 85.1041 59.073 85.1041 59.6304C85.1041 60.5002 85.6311 60.9949 86.6853 61.1147C86.8672 61.1347 87.0501 61.1445 87.2332 61.1439C88.0436 61.1379 88.8468 60.9966 89.6069 60.7263C90.194 60.5233 90.79 60.2467 91.3948 59.8966C91.4817 59.846 91.5679 59.7943 91.6536 59.7416C92.5733 59.1822 93.4491 58.5584 94.2737 57.8753C94.7403 57.4874 95.1867 57.0775 95.6113 56.6472C95.9527 56.2946 96.2959 55.9436 96.6408 55.5942C96.8843 55.347 97.1292 55.1012 97.3755 54.8566C97.6768 54.3544 97.9795 53.8529 98.2836 53.3523C99.588 51.2012 101.305 48.4116 103.434 44.9836C103.927 44.1906 104.419 43.3974 104.911 42.604C106.524 40.0007 107.625 38.2076 108.215 37.2248C108.32 37.0515 108.423 36.8777 108.525 36.7033C108.8 36.2442 109.08 35.788 109.364 35.3348C109.96 34.3884 110.489 33.6092 110.949 32.9971C111.093 32.8047 111.242 32.6156 111.396 32.4301C112.513 31.0685 114.25 30.255 116.606 29.9894C117.212 29.9231 117.821 29.8908 118.431 29.8927C119.171 29.8927 119.542 30.338 119.542 31.2284C119.528 31.6292 119.455 32.026 119.323 32.4063C118.924 33.6591 117.982 35.4105 116.498 37.6606C116.176 38.1467 115.849 38.629 115.515 39.1075L113.571 41.912C118.91 36.2137 123.415 32.6078 127.087 31.0944C128.876 30.3522 130.489 29.9812 131.924 29.9812C132.406 29.9778 132.887 30.0261 133.357 30.1252C134.142 30.296 134.806 30.6191 135.349 31.0944C135.623 31.3299 135.867 31.5966 136.074 31.8885C136.429 32.381 136.621 32.9658 136.622 33.5651C136.619 33.9333 136.573 34.2999 136.486 34.6583C136.405 35.0035 136.288 35.3682 136.136 35.7524C135.992 36.1136 135.83 36.468 135.651 36.8145C135.34 37.4199 135.014 38.0176 134.672 38.607C134.359 39.1468 134.029 39.6773 133.683 40.1979C133.089 41.0878 132.329 42.1852 131.403 43.4902C131.291 43.6468 131.18 43.8033 131.068 43.9597C130.049 45.3887 129.469 46.2025 129.329 46.4013C129.323 46.411 129.316 46.4207 129.309 46.4305C129.286 46.4635 129.264 46.4966 129.241 46.5298C129.131 46.6921 128.938 46.979 128.664 47.3905C128.64 47.4267 128.615 47.4628 128.591 47.499C128.22 48.0564 127.942 48.4691 127.756 48.7371C127.749 48.7475 127.742 48.7578 127.735 48.7681C127.68 48.8471 127.626 48.9264 127.573 49.0061C127.388 49.2814 127.133 49.6695 126.809 50.1704C126.706 50.3298 126.603 50.4897 126.501 50.6499C126.209 51.1094 125.965 51.506 125.768 51.8397C125.661 52.0212 125.554 52.2026 125.447 52.384C125.35 52.5475 125.248 52.7214 125.139 52.9055C125.025 53.0994 124.91 53.2933 124.795 53.4872C124.531 53.9358 124.302 54.3424 124.11 54.7071C124.028 54.863 123.948 55.0201 123.87 55.1784C123.75 55.4258 123.632 55.6744 123.517 55.9242C123.393 56.1939 123.271 56.4647 123.153 56.7366C123.026 57.0392 122.911 57.3467 122.81 57.6583C122.613 58.2747 122.511 58.8126 122.505 59.2721C122.505 59.2876 122.504 59.3031 122.504 59.3186C122.496 59.6373 122.567 59.9533 122.711 60.2403C123.078 60.932 123.935 61.2779 125.282 61.2779C126.269 61.2779 127.512 60.8029 129.008 59.8529C130.28 59.0498 131.482 58.1475 132.6 57.1551C132.754 57.0174 132.907 56.8779 133.058 56.7366C136.227 53.7176 138.042 52.1895 138.503 52.1524C138.509 52.1519 138.514 52.1516 138.52 52.1515C138.667 52.1549 138.81 52.1963 138.934 52.2714C139.058 52.3465 139.159 52.4525 139.226 52.5782C139.506 53.0098 139.668 53.7701 139.712 54.8593C139.72 55.0696 139.723 55.2799 139.723 55.4903C139.728 56.0356 139.677 56.5801 139.57 57.1159C139.44 57.7443 139.226 58.2926 138.93 58.7606C138.589 59.3019 138.115 59.7536 137.548 60.0753C136.529 60.9625 135.489 61.8262 134.427 62.6655C132.504 64.1796 130.823 65.3314 129.384 66.1209C128.725 66.4918 128.034 66.8075 127.318 67.0646C126.045 67.4821 124.65 67.6909 123.134 67.6909C123.032 67.6909 122.93 67.69 122.828 67.6882C121.873 67.6629 120.935 67.4341 120.083 67.0181C119.508 66.7464 118.935 66.3923 118.363 65.9559C118.229 65.8534 118.098 65.7483 117.968 65.6405C117.328 65.1188 116.786 64.4945 116.366 63.7951C115.827 62.8705 115.549 61.8257 115.561 60.7655C115.568 59.8708 115.669 58.9792 115.863 58.1042C116.121 56.8995 116.545 55.6127 117.135 54.2439C117.569 53.2334 118.033 52.235 118.526 51.2498C119.127 50.0524 119.736 48.9654 120.352 47.9886C120.791 47.2938 121.238 46.6032 121.692 45.9172C122.094 45.3081 122.521 44.6718 122.972 44.008C123.445 43.3143 123.921 42.6232 124.402 41.9348C125.973 39.6828 126.82 38.263 126.942 37.6752C126.944 37.6631 126.946 37.6509 126.948 37.6387L126.855 37.5494C126.57 37.5935 126.297 37.6891 126.049 37.8311C124.751 38.4979 122.497 40.3332 119.288 43.337C117.863 44.6687 116.452 46.0133 115.053 47.3705C113.959 48.4335 112.934 49.4489 111.977 50.4165C111.077 51.3254 110.188 52.2451 109.312 53.1754C106.69 55.9653 103.557 59.69 99.916 64.3495C99.7159 64.6019 99.5056 64.8468 99.2856 65.0834C98.5487 65.8699 97.9259 66.2632 97.4172 66.2632C97.1916 66.2613 96.9665 66.2418 96.7441 66.2048C96.2019 66.1185 95.5544 65.9377 94.8017 65.6623C94.6106 65.5927 94.4201 65.5216 94.2301 65.449C94.1713 65.4264 94.1125 65.4036 94.0538 65.3806C93.1609 65.8688 92.2417 66.3111 91.3 66.7054C90.2907 67.1235 89.3291 67.4402 88.4153 67.6554C87.5144 67.8761 86.5892 67.9918 85.6596 68C83.222 68 81.1239 67.2135 79.3651 65.6405C78.8865 65.2183 78.4475 64.7564 78.0531 64.2601C77.8629 64.51 77.6663 64.7553 77.4635 64.9959C76.9888 65.5557 76.6043 65.9188 76.3098 66.0854C75.8016 66.3645 75.2598 66.5825 74.6963 66.7345C73.1903 67.1624 71.1592 67.3764 68.6028 67.3764C65.9725 67.3812 63.3441 67.2391 60.7309 66.9506C59.8966 66.8571 59.0644 66.7468 58.2349 66.6197C55.0213 66.1261 52.4198 65.6399 50.4303 65.1609C50.3854 65.15 50.3405 65.1391 50.2957 65.1281C49.7332 64.9904 49.1717 64.849 48.6112 64.7041C47.3282 64.3729 45.7891 63.9611 43.9936 63.4687C43.1238 63.2299 42.2545 62.9892 41.3858 62.7467C38.1715 61.8495 35.8585 61.2098 34.4467 60.8275C34.1754 60.7541 33.904 60.6815 33.6323 60.6096ZM154.952 67.1986L154.257 67.0199L153.979 67.0646C153.766 67.0646 153.335 66.7825 152.686 66.2185C152.678 66.2112 152.669 66.2039 152.661 66.1966C152.546 66.096 152.43 65.9954 152.315 65.8948C151.89 65.5241 151.607 65.2779 151.467 65.1563C151.456 65.1469 151.445 65.1375 151.434 65.1281C151.28 64.9944 151.095 64.8533 150.879 64.705C150.832 64.6729 150.785 64.6407 150.738 64.6084C150.631 64.5336 150.547 64.4741 150.487 64.4297C150.471 64.418 150.455 64.4061 150.439 64.3941C150.362 64.3346 150.262 64.2455 150.138 64.127C150.014 64.0079 149.929 63.9112 149.883 63.8371C149.859 63.7979 149.834 63.759 149.808 63.7204C149.78 63.6775 149.751 63.635 149.721 63.5927C149.634 63.4244 149.588 63.1831 149.583 62.8688C149.583 62.8503 149.583 62.8317 149.583 62.8132C149.584 62.7046 149.592 62.5962 149.608 62.4886C149.652 62.1799 149.752 61.7909 149.907 61.3216C150.018 61.0433 150.179 60.7854 150.381 60.5594C151.501 59.1767 154.506 56.5743 159.395 52.7524C161.063 51.4497 162.736 50.1536 164.415 48.8639C168.213 45.9427 172.73 42.511 177.965 38.5687C180.49 36.6672 183.017 34.7693 185.548 32.875C185.723 32.2236 185.901 31.5727 186.079 30.9221C186.24 30.338 186.411 29.7189 186.592 29.0649C186.783 28.376 186.975 27.6874 187.168 26.9989C187.816 24.6838 188.333 22.8214 188.719 21.4119C189.067 20.1396 189.41 18.8663 189.749 17.5918C189.799 17.4034 189.849 17.2149 189.899 17.0265C189.99 16.6863 190.08 16.346 190.17 16.0054C190.761 13.7558 191.056 12.449 191.056 12.085C191.057 12.0142 191.052 11.9435 191.041 11.8734C190.999 11.5993 190.865 11.4623 190.639 11.4623C190.323 11.4801 190.014 11.5572 189.728 11.6893C188.404 12.2351 186.261 13.768 183.297 16.288C183.191 16.3784 183.085 16.4689 182.979 16.5597C182.295 17.1444 181.621 17.7401 180.958 18.3467C178.479 20.6205 177.174 22.1963 177.043 23.074C177.035 23.1204 177.031 23.1674 177.031 23.2144C177.032 23.3375 177.022 23.4605 177 23.5818C176.92 24 176.686 24.2185 176.299 24.2373C176.281 24.2384 176.263 24.239 176.244 24.2391C176.14 24.2355 176.038 24.211 175.945 24.1671C175.631 24.0322 175.23 23.7073 174.74 23.1925C174.556 23.001 174.384 22.7988 174.226 22.5871C173.888 22.1294 173.69 21.7 173.632 21.2988C173.631 21.2918 173.63 21.2849 173.629 21.2779C173.602 21.0721 173.572 20.8666 173.539 20.6615C173.507 20.4597 173.473 20.2701 173.438 20.0926C173.418 19.9906 173.397 19.8887 173.374 19.7872C173.329 19.5177 173.288 19.2475 173.253 18.9767C173.179 18.4205 173.143 17.9486 173.143 17.5608C173.157 17.0795 173.274 16.6061 173.485 16.1695C174.078 14.8469 175.446 13.2258 177.587 11.3064C180.574 8.63247 183.857 6.2814 187.376 4.29521C188.146 3.8573 188.928 3.43958 189.721 3.0425C191.986 1.915 193.729 1.32481 194.952 1.27193C195.011 1.26912 195.07 1.2676 195.13 1.26738C195.74 1.26126 196.347 1.35056 196.928 1.53177C197.73 1.79038 198.444 2.25286 198.995 2.87018C199.476 3.4106 199.836 4.04064 200.053 4.72098C200.227 5.24066 200.344 5.81535 200.404 6.44505C200.437 6.79577 200.453 7.14776 200.453 7.49991C200.453 9.46194 199.199 14.9289 196.691 23.9009C196.618 24.162 196.545 24.4231 196.472 24.6841C212.127 13.1161 221.082 6.56661 223.336 5.03552C223.496 4.92391 223.66 4.81778 223.827 4.71733C224.178 4.52641 224.551 4.37818 224.939 4.27606C225.642 4.08277 226.492 3.97246 227.491 3.9451C227.659 3.9407 227.826 3.93857 227.994 3.93872C229.453 3.94483 230.904 4.15584 232.3 4.56508C232.753 4.6954 233.2 4.84291 233.641 5.00726C233.763 5.05577 233.881 5.11307 233.993 5.17867C234.281 5.34825 234.451 5.54457 234.503 5.76764C234.514 5.81763 234.52 5.86869 234.52 5.9199C234.519 6.27506 234.41 6.62223 234.206 6.91823C234.195 6.93417 234.184 6.94998 234.173 6.96564C234.095 7.07394 234.01 7.17719 233.918 7.27472C233.722 7.4838 233.466 7.71508 233.149 7.96854C233.074 8.02829 232.999 8.08725 232.923 8.14541C232.322 8.60553 231.11 9.46619 229.29 10.7274C228.554 11.2376 227.819 11.7494 227.085 12.2627C225.773 13.1793 224.317 14.2035 222.716 15.3353C217.232 19.2162 208.411 25.7021 196.253 34.7932C195.184 35.5929 194.115 36.3931 193.046 37.1938C190.64 46.0922 189.211 52.4336 188.759 56.2178C188.665 56.9514 188.612 57.6895 188.603 58.4287C188.603 59.1751 188.684 59.5863 188.846 59.6623C188.864 59.6708 188.883 59.6751 188.903 59.6751C188.97 59.6738 189.037 59.663 189.101 59.6432C189.225 59.6073 189.366 59.5404 189.525 59.4426C189.59 59.4031 189.652 59.3617 189.714 59.3186C191.472 58.3157 194.316 56.1713 198.246 52.8855C198.387 52.7671 198.529 52.6486 198.67 52.5299C199.392 51.9235 200.112 51.3145 200.829 50.7028C203.694 48.2582 205.458 46.656 206.122 45.8962C206.259 45.7395 206.399 45.5857 206.543 45.4349C207.137 44.8131 207.56 44.5143 207.813 44.5386C208.263 44.5386 208.494 45.0459 208.506 46.0603C208.507 46.0874 208.507 46.1144 208.506 46.1415L208.46 46.8982C208.461 46.9081 208.464 46.9178 208.467 46.9274C208.494 47.0234 208.604 47.3388 208.795 47.8737C208.83 47.9716 208.865 48.0695 208.9 48.1673C209.052 48.5978 209.163 49.041 209.23 49.4911C209.303 49.9664 209.34 50.4749 209.34 51.0164C209.341 51.3563 209.317 51.6957 209.267 52.0321C209.17 52.6527 208.978 53.1748 208.691 53.5984C208.542 53.8172 208.387 54.0318 208.226 54.2421C207.839 54.7478 207.354 55.3271 206.771 55.9798C206.48 56.3038 206.182 56.6218 205.878 56.9335C205.164 57.6671 204.297 58.4992 203.279 59.4298C203.263 59.4447 203.247 59.4596 203.23 59.4745C201.714 60.8576 200.106 62.1441 198.415 63.3256C197.125 64.2532 195.758 65.0772 194.327 65.7891C192.778 66.5482 191.265 67.0849 189.787 67.3992C188.775 67.6179 187.742 67.7298 186.705 67.7329C185.23 67.732 183.801 67.2415 182.659 66.3443C182.441 66.1788 182.231 66.0033 182.03 65.8183C180.641 64.5418 179.947 62.5014 179.947 59.6969C179.947 56.8925 180.749 52.181 182.354 45.5625C164.703 59.8085 155.77 66.9758 155.554 67.0646C155.353 67.1472 155.166 67.1916 154.992 67.1977C154.979 67.1982 154.965 67.1985 154.952 67.1986ZM233.484 56.7785C233.496 56.5718 233.502 56.3647 233.501 56.1576C233.501 53.4869 233.1 52.1515 232.299 52.1515C232.293 52.1516 232.288 52.1519 232.282 52.1524C231.856 52.1889 230.21 53.6872 227.345 56.6472C226.921 57.0775 226.474 57.4874 226.008 57.8753C225.183 58.5584 224.307 59.1822 223.388 59.7416C223.302 59.7943 223.215 59.846 223.128 59.8966C222.524 60.2467 221.928 60.5233 221.34 60.7263C220.58 60.9965 219.777 61.1378 218.967 61.1439C218.784 61.1445 218.601 61.1347 218.419 61.1147C217.365 60.9949 216.838 60.5002 216.838 59.6304C216.838 59.073 216.987 58.4227 217.286 57.6793C217.428 57.3282 217.588 56.9838 217.764 56.6472C217.957 56.2953 218.135 55.975 218.297 55.6863C218.388 55.5241 218.481 55.3625 218.574 55.2012C218.599 55.1576 218.625 55.1142 218.651 55.0709C218.812 54.7986 219.012 54.4828 219.251 54.1236C219.348 53.9774 219.447 53.8318 219.546 53.6869C219.885 53.1927 220.116 52.8405 220.24 52.6302C220.265 52.5897 220.288 52.5487 220.31 52.5071C226.736 41.86 230.351 35.6098 231.154 33.7566C231.239 33.5909 231.297 33.4138 231.326 33.2315C231.326 33.2093 231.326 33.1871 231.325 33.1649C231.301 32.4993 230.916 31.7648 230.169 30.9613C229.976 30.7512 229.763 30.5589 229.533 30.3869C228.972 29.9534 228.274 29.7162 227.554 29.714C226.809 29.714 225.812 30.0924 224.561 30.8491C224.145 31.1026 223.738 31.3699 223.341 31.6505C222.517 32.2281 221.717 32.837 220.943 33.4758C220.145 34.1329 219.385 34.8314 218.667 35.5682C217.386 36.889 216.745 37.7053 216.745 38.0171C216.745 38.2614 216.941 38.6112 217.331 39.0665C217.448 39.2025 217.569 39.335 217.694 39.464C217.804 39.5772 217.913 39.6924 218.018 39.8095C218.323 40.1487 218.516 40.4122 218.598 40.6C218.625 40.6556 218.64 40.7156 218.643 40.7769C218.643 40.972 217.993 42.0928 216.694 44.1393C216.496 44.451 216.297 44.7622 216.098 45.0729C215.446 46.0879 214.81 47.1119 214.189 48.1445C213.087 49.9778 212.026 51.8333 211.006 53.7097C209.787 55.9495 209.005 57.806 208.662 59.2794C208.536 59.7883 208.468 60.309 208.46 60.832C208.462 61.4023 208.567 61.9678 208.771 62.5032C209.168 63.5614 209.944 64.6072 211.098 65.6405C212.858 67.2135 214.956 68 217.394 68C218.323 67.9918 219.248 67.8761 220.149 67.6554C221.921 67.2378 223.872 66.44 226.003 65.2621C226.572 64.9483 227.125 64.6094 227.661 64.2464C230.032 62.678 231.947 60.5526 233.224 58.0723C233.363 57.7829 233.45 57.3517 233.484 56.7785ZM108.614 19.9167C109.034 19.1008 109.257 18.2041 109.267 17.2936C109.268 17.0478 109.241 16.8025 109.186 16.5624C109.092 16.1273 108.861 15.7303 108.525 15.4246C108.2 15.1349 107.801 14.9341 107.368 14.8429C107.095 14.7835 106.816 14.7544 106.536 14.7563C105.303 14.7595 104.1 15.1146 103.077 15.7765C102.452 16.1762 101.88 16.6484 101.374 17.1824C100.846 17.7223 100.384 18.3181 99.9957 18.9584C99.3759 19.9644 99.0452 21.1106 99.0373 22.2798C99.0373 23.6572 99.5678 24.5017 100.629 24.8135C100.976 24.9099 101.337 24.9563 101.698 24.9512C102.92 24.9512 104.109 24.5467 105.264 23.7377C105.825 23.3388 106.344 22.8877 106.813 22.3911C107.605 21.5644 108.205 20.7396 108.614 19.9167ZM240.348 19.9167C240.768 19.1007 240.991 18.2041 241 17.2936C241.002 17.0478 240.975 16.8025 240.92 16.5624C240.826 16.1273 240.595 15.7303 240.26 15.4246C239.935 15.1349 239.535 14.9341 239.102 14.8429C238.829 14.7835 238.55 14.7544 238.27 14.7563C237.037 14.7595 235.834 15.1146 234.812 15.7765C234.186 16.1762 233.614 16.6484 233.108 17.1824C232.58 17.7223 232.118 18.3181 231.73 18.9584C231.11 19.9643 230.779 21.1105 230.77 22.2798C230.77 23.6572 231.301 24.5017 232.363 24.8135C232.71 24.9099 233.071 24.9563 233.432 24.9512C234.654 24.9512 235.843 24.5467 236.999 23.7377C237.559 23.3387 238.078 22.8877 238.547 22.3911C239.339 21.5644 239.939 20.7396 240.348 19.9167ZM16.7377 57.8945C16.1551 57.8935 15.5726 57.9048 14.9906 57.9282C12.4475 58.0352 11.0281 58.398 10.7323 59.0168C10.6938 59.0974 10.6741 59.1852 10.6745 59.2739C10.6773 59.4235 10.7358 59.5671 10.8395 59.6787C10.9671 59.8264 11.1684 59.9647 11.4433 60.0935C11.5325 60.1353 11.6233 60.1739 11.7154 60.2093C12.0833 60.3482 12.4656 60.4488 12.8558 60.5093C13.2685 60.5762 13.714 60.6096 14.1924 60.6096C17.0334 60.601 19.8279 59.9153 22.326 58.6138C22.5011 58.5248 22.6749 58.4333 22.8473 58.3394C21.0285 58.1121 19.4084 57.9717 17.9871 57.9182C17.5708 57.9025 17.1543 57.8946 16.7377 57.8945Z" stroke="black" stroke-width="0.944882" stroke-linecap="round"/>
</svg>
